<?xml version="1.0" standalone="no"?>
<!DOCTYPE svg PUBLIC "-//W3C//DTD SVG 20010904//EN"
 "http://www.w3.org/TR/2001/REC-SVG-20010904/DTD/svg10.dtd">
<svg version="1.0" xmlns="http://www.w3.org/2000/svg"
 width="400.000000pt" height="400.000000pt" viewBox="0 0 400.000000 400.000000"
 preserveAspectRatio="xMidYMid meet">
<metadata>
Created by potrace 1.15, written by Peter Selinger 2001-2017
</metadata>
<g transform="translate(0.000000,400.000000) scale(0.100000,-0.100000)"
fill="#000000" stroke="none">
<path d="M2182 3988 c-7 -7 -12 -35 -12 -64 0 -68 -10 -114 -24 -114 -7 0 -18
-16 -25 -35 -7 -19 -18 -35 -26 -35 -7 0 -26 -13 -42 -30 -15 -16 -33 -30 -38
-30 -6 0 -17 -16 -24 -35 -14 -38 -55 -72 -82 -67 -12 2 -19 -7 -25 -30 -4
-18 -9 -40 -11 -48 -3 -8 -6 -28 -8 -45 -2 -16 -9 -55 -15 -85 -23 -115 -21
-160 9 -160 20 -1 46 -20 54 -40 4 -12 6 -11 6 3 1 14 6 17 22 12 14 -5 26 0
38 14 23 26 28 26 52 -1 16 -20 20 -21 29 -8 5 8 10 27 10 42 0 31 17 47 26
24 3 -9 11 -13 18 -9 12 9 31 12 89 17 20 2 40 6 44 10 3 3 19 6 33 6 15 0 33
7 40 15 7 8 16 12 21 9 5 -3 9 2 9 11 0 9 4 14 9 10 5 -3 12 -1 16 5 19 31 90
-30 100 -87 7 -47 25 -79 25 -48 0 15 2 17 9 6 12 -18 2 -51 -15 -51 -17 0
-19 -26 -2 -36 7 -4 8 -3 4 4 -5 8 -2 10 8 6 9 -3 13 -10 10 -15 -3 -5 4 -13
15 -17 11 -4 20 -10 21 -14 0 -4 3 -15 7 -25 4 -11 -4 -25 -28 -45 -57 -49
-120 -89 -134 -86 -8 2 -14 -1 -14 -7 0 -5 15 -9 34 -9 29 1 33 -1 24 -12 -6
-8 -7 -14 -2 -14 6 0 28 21 50 48 22 26 55 55 72 65 l31 18 10 -26 c6 -14 10
-38 10 -53 0 -21 2 -24 10 -12 5 8 10 34 10 58 0 44 35 127 64 151 9 8 31 17
49 20 30 6 32 10 39 61 3 30 6 101 7 158 1 134 -21 204 -84 268 -25 24 -45 49
-45 55 0 7 -10 9 -24 5 -16 -4 -26 -1 -30 10 -3 8 -21 21 -40 29 -22 9 -36 23
-40 41 -5 17 -12 24 -21 20 -9 -3 -12 0 -8 10 3 7 1 14 -5 14 -15 0 -11 48 4
54 8 3 14 10 14 17 0 6 -7 9 -15 5 -12 -4 -14 1 -10 25 4 22 2 28 -6 23 -7 -4
-9 -3 -6 3 4 6 20 13 37 16 18 4 30 13 30 22 0 18 -16 20 -23 3 -4 -10 -7 -10
-15 0 -10 15 -30 13 -51 -7 -12 -11 -17 -11 -27 4 -11 14 -12 12 -9 -17 2 -18
7 -43 10 -55 6 -18 3 -23 -10 -23 -12 0 -15 5 -11 16 3 9 1 34 -4 55 l-11 39
-97 0 c-63 0 -102 -4 -110 -12z"/>
<path d="M3800 3969 c-38 -21 -60 -24 -60 -9 0 5 -7 7 -15 4 -8 -4 -15 -16
-15 -29 0 -12 -7 -28 -15 -35 -8 -7 -15 -9 -15 -5 0 5 -9 0 -19 -9 -12 -11
-17 -25 -13 -38 3 -15 1 -19 -9 -16 -8 3 -13 12 -13 21 3 34 -14 6 -20 -32 -5
-32 -10 -39 -22 -34 -12 4 -15 1 -13 -12 2 -10 10 -20 18 -23 8 -3 11 0 7 7
-4 6 3 15 19 21 14 5 23 14 20 20 -3 5 1 10 9 10 9 0 16 5 16 11 0 6 7 9 15 5
8 -3 15 -1 15 4 0 6 7 10 16 10 8 0 13 4 9 9 -3 5 -1 12 5 16 5 3 10 1 10 -6
0 -9 3 -9 14 0 7 6 21 9 30 5 9 -3 16 -2 16 4 0 15 31 24 44 13 8 -7 21 -5 39
4 32 16 28 16 67 5 19 -5 32 -5 36 2 4 6 10 5 15 -3 5 -9 9 7 9 41 l0 56 -83
0 c-62 1 -91 -4 -117 -17z"/>
<path d="M2817 3013 c-4 -3 -7 -17 -7 -30 0 -12 -4 -23 -10 -23 -5 0 -7 -7 -4
-15 4 -8 2 -15 -3 -15 -15 0 -53 -79 -53 -109 0 -45 20 -91 40 -91 29 0 137
-80 222 -164 27 -27 38 -45 34 -58 -2 -11 4 -28 15 -39 10 -10 19 -30 19 -44
0 -14 5 -25 10 -25 6 0 10 -11 10 -25 0 -13 7 -28 16 -33 9 -5 14 -15 12 -23
-3 -8 2 -19 11 -26 14 -10 13 -17 -11 -64 -19 -38 -24 -55 -16 -61 9 -5 9 -13
-2 -32 -18 -34 -27 -33 -32 4 -3 18 1 35 11 45 14 13 13 15 -2 15 -10 0 -16 4
-13 9 3 5 -1 11 -9 15 -8 3 -15 1 -15 -4 0 -6 -7 -10 -15 -10 -19 0 -21 56 -2
63 7 4 6 6 -5 6 -9 1 -18 6 -20 13 -8 23 -25 -2 -42 -59 -16 -59 -36 -99 -36
-75 0 30 -18 11 -68 -76 l-13 -23 30 15 c34 18 55 21 46 6 -3 -6 4 -14 17 -19
18 -8 19 -10 5 -10 -46 -2 -141 -61 -145 -91 -5 -30 -29 -49 -62 -50 -25 0
-25 1 8 26 21 17 32 34 32 51 0 24 -2 25 -32 18 -18 -4 -60 -9 -92 -11 -82 -5
-106 -23 -106 -77 0 -23 -7 -80 -17 -125 -18 -95 -15 -102 45 -102 l34 0 -7
41 c-4 23 -16 50 -26 60 -26 26 -25 59 1 59 14 0 20 -7 20 -22 l1 -23 18 23
c11 12 24 22 31 22 6 0 9 4 5 10 -3 5 14 14 37 21 51 14 148 18 141 5 -3 -4 0
-12 8 -17 10 -6 5 -24 -26 -86 -22 -43 -41 -81 -43 -85 -2 -5 14 -8 36 -8 32
0 42 4 47 20 7 21 30 27 40 11 3 -5 0 -13 -6 -17 -16 -9 9 -24 43 -24 20 0 31
8 43 30 8 16 15 35 15 42 0 20 42 52 70 54 37 2 37 3 11 17 -13 6 -23 17 -22
22 2 12 51 9 63 -3 11 -11 -11 -52 -28 -52 -7 0 -14 -7 -18 -15 -3 -8 -1 -15
4 -15 6 0 10 -6 10 -14 0 -11 9 -13 37 -9 38 7 38 9 17 -42 -5 -13 8 -15 89
-15 81 0 96 3 99 16 3 18 88 49 88 33 0 -19 21 -8 30 17 8 20 6 36 -7 65 -18
41 -33 43 -33 3 0 -13 -4 -24 -10 -24 -32 0 13 128 60 172 11 11 20 25 20 33
0 8 6 15 14 15 24 0 26 -15 5 -30 -10 -8 -19 -21 -19 -30 0 -8 -7 -28 -15 -44
-14 -26 -13 -30 6 -54 16 -21 20 -39 18 -82 -2 -55 6 -90 21 -90 16 0 45 77
50 135 l5 60 63 -3 c56 -4 65 -1 86 21 20 22 44 113 32 124 -2 2 -52 7 -111
10 -67 4 -112 11 -120 19 -7 7 -15 11 -18 8 -3 -3 -13 8 -23 25 -10 17 -26 31
-36 31 -15 0 -18 8 -18 45 0 47 9 56 30 30 7 -8 19 -15 26 -15 8 0 14 -10 14
-22 0 -31 11 -68 19 -68 4 0 8 15 9 33 2 17 14 100 27 182 18 107 30 154 42
163 15 11 14 12 -8 12 -23 1 -23 1 -5 15 19 14 19 15 -6 15 -23 0 -27 -5 -33
-42 -11 -74 -18 -88 -25 -48 -4 25 -10 35 -23 34 -11 -1 -17 5 -17 18 0 10 -4
16 -10 13 -5 -3 -15 5 -22 20 -10 22 -8 28 9 45 18 17 23 17 33 5 14 -17 50
-20 50 -5 0 6 -7 10 -15 10 -8 0 -24 6 -35 13 -17 10 -22 9 -30 -3 -9 -13 -10
-13 -10 0 0 16 -48 77 -57 72 -2 -2 -7 -1 -10 2 -4 3 1 6 10 6 13 0 17 9 17
35 0 19 -4 35 -10 35 -5 0 -10 -5 -10 -11 0 -5 -5 -7 -11 -3 -8 5 -8 9 1 14 8
5 9 13 4 21 -6 10 -3 10 11 -1 16 -13 18 -13 13 0 -3 8 2 20 10 26 19 14 9 46
-12 38 -8 -3 -17 0 -22 7 -4 8 -3 10 4 5 7 -4 12 -2 12 3 0 6 -10 11 -22 11
-21 1 -22 2 -5 14 18 14 24 56 7 56 -5 0 -10 11 -10 25 0 19 -5 25 -21 25 -12
0 -23 8 -26 19 -3 11 -12 23 -21 27 -10 4 -100 8 -200 9 -119 2 -188 7 -195
14 -12 12 -50 15 -60 4z m393 -945 c0 -5 4 -6 10 -3 5 3 25 3 45 -1 43 -8 46
-32 11 -78 -13 -17 -26 -40 -30 -52 -11 -36 -48 -63 -73 -53 -13 4 -23 13 -23
18 0 6 -7 8 -15 5 -28 -11 -65 5 -65 28 0 28 22 88 32 88 4 0 8 6 8 14 0 26
30 45 65 44 19 -1 35 -5 35 -10z"/>
<path d="M2210 2978 c-14 -6 -37 -10 -51 -9 -18 1 -30 -6 -39 -24 -15 -28 -41
-32 -64 -9 -9 8 -30 16 -48 17 -18 1 -39 6 -47 11 -17 11 -32 -11 -23 -33 11
-30 27 -38 62 -34 22 3 42 -1 55 -11 l20 -15 -20 -15 c-11 -9 -27 -15 -35 -14
-8 0 -23 -2 -33 -7 -22 -9 -35 1 -19 17 15 15 16 28 2 28 -5 0 -12 -11 -16
-25 -3 -14 -12 -25 -20 -25 -16 0 -19 -16 -4 -25 6 -3 10 -2 10 4 0 14 58 10
71 -5 8 -10 16 -10 36 -1 21 9 27 8 39 -8 8 -10 14 -33 13 -49 -1 -30 -1 -30
-9 -6 -8 24 -8 24 -9 3 -1 -28 -17 -30 -24 -3 -3 11 -10 20 -17 20 -7 0 -9 -8
-5 -19 5 -18 2 -19 -29 -14 -30 5 -36 3 -36 -12 0 -11 -5 -15 -15 -11 -8 3
-21 -2 -30 -10 -13 -14 -15 -14 -15 0 0 9 -7 16 -15 16 -8 0 -15 -6 -15 -14 0
-10 -21 -16 -72 -21 -69 -6 -155 -35 -143 -47 3 -3 -5 -3 -19 -1 -14 3 -35 -2
-48 -11 -12 -9 -37 -16 -56 -16 -19 0 -42 -8 -54 -20 -12 -10 -25 -17 -30 -14
-4 3 -8 -7 -8 -21 0 -14 -4 -24 -9 -21 -5 3 -14 -1 -21 -9 -7 -9 -21 -13 -34
-9 -14 3 -32 -3 -48 -15 -14 -12 -31 -21 -37 -21 -6 0 -15 -9 -21 -21 -7 -11
-18 -18 -25 -15 -8 3 -17 1 -20 -4 -4 -6 -15 -10 -26 -10 -10 0 -19 -5 -19
-11 0 -6 -7 -8 -16 -5 -8 3 -25 1 -36 -5 -17 -9 -26 -5 -59 27 -39 38 -48 39
-30 5 9 -15 6 -17 -22 -14 -27 4 -30 2 -17 -9 8 -7 23 -29 33 -49 11 -21 33
-43 53 -53 42 -20 45 -20 38 -1 -4 8 1 17 10 21 20 8 21 30 1 38 -22 8 -18 25
5 19 11 -3 27 0 35 7 25 21 28 5 10 -56 -20 -70 -9 -90 30 -54 14 13 25 28 25
34 0 6 15 12 33 13 87 6 128 16 137 34 6 10 17 16 25 13 8 -3 24 4 36 15 27
25 49 27 49 5 0 -8 5 -12 10 -9 7 4 8 -8 4 -34 -4 -26 -3 -41 4 -41 6 0 14
-14 17 -31 6 -25 3 -34 -10 -42 -14 -8 -2 -17 70 -54 48 -24 93 -42 101 -39 8
3 14 -1 14 -8 0 -13 67 -46 94 -46 8 0 27 40 47 102 31 91 59 136 59 94 0 -9
5 -25 12 -35 9 -15 16 -17 30 -10 30 16 34 -18 10 -83 l-21 -58 37 0 c27 0 33
3 25 11 -9 9 -8 19 3 41 24 46 49 25 29 -24 -11 -27 45 -13 72 17 24 28 43 32
43 11 0 -8 11 -13 28 -13 15 0 64 -4 110 -10 46 -5 85 -6 87 -3 6 10 -39 70
-53 70 -17 0 -62 30 -62 41 0 5 -15 22 -32 38 l-33 29 24 26 c14 14 30 26 36
26 14 0 55 -42 55 -57 0 -6 8 -13 18 -15 10 -3 28 -25 40 -49 l22 -44 -6 47
c-6 45 -5 48 22 59 102 41 123 61 173 162 8 15 22 32 32 38 10 5 16 15 13 22
-3 9 3 13 18 13 17 -1 24 5 25 24 2 14 6 40 9 58 6 30 7 31 20 15 13 -16 14
-15 8 12 -9 40 -10 42 -34 48 -12 3 -20 0 -20 -7 0 -24 -45 -67 -63 -60 -12 4
-16 2 -12 -8 4 -9 -6 -18 -29 -26 -19 -7 -46 -27 -60 -43 -14 -17 -30 -27 -36
-24 -5 3 -10 -1 -10 -9 0 -9 -3 -15 -7 -15 -5 1 -16 1 -25 0 -22 -1 -24 -21
-3 -21 22 0 18 -29 -7 -51 -14 -11 -39 -18 -65 -19 -48 0 -63 14 -32 30 13 8
19 18 16 30 -3 11 1 21 10 24 12 5 13 9 3 21 -10 12 -9 15 6 16 11 1 28 0 39
-1 17 -2 18 0 5 17 -36 46 -78 57 -102 26 -7 -10 -22 -19 -33 -21 -11 -1 -33
-4 -50 -7 -44 -7 -69 3 -54 21 6 8 18 14 26 14 7 0 16 6 19 14 3 8 17 17 32
21 31 8 42 21 41 50 0 18 -1 18 -9 -2 -6 -15 -18 -23 -33 -23 -14 0 -40 -7
-60 -15 -19 -8 -37 -12 -40 -9 -3 3 -11 3 -17 -1 -8 -5 -8 -11 1 -21 9 -11 8
-14 -3 -14 -18 0 -72 100 -61 111 4 4 17 9 28 11 12 2 20 12 21 23 1 40 17 71
53 103 l36 34 -46 -23 c-29 -13 -54 -19 -65 -15 -16 6 -16 8 -4 17 13 8 13 10
0 20 -12 8 -10 9 8 4 16 -5 22 -2 22 9 0 22 75 22 84 1 3 -8 12 -15 21 -15 8
0 15 -4 15 -8 0 -4 14 -16 30 -25 27 -16 31 -16 36 -3 3 9 9 14 13 12 3 -2 16
12 28 30 l22 34 -39 -20 c-44 -23 -60 -25 -60 -9 0 6 7 9 15 5 8 -3 15 -2 15
3 0 5 14 14 30 21 50 21 28 21 -30 1 -39 -14 -60 -16 -73 -9 -25 13 -17 31 19
43 16 5 32 14 35 18 4 5 23 9 43 9 35 0 47 10 26 23 -6 4 -16 2 -23 -4 -8 -6
-18 -6 -27 -1 -19 12 -59 11 -90 -2z m-462 -477 c7 -15 9 -36 6 -46 -5 -11 -1
-21 9 -27 9 -5 14 -15 10 -24 -3 -8 2 -23 12 -34 22 -25 12 -80 -17 -88 -14
-3 -16 -7 -8 -12 19 -12 3 -83 -16 -76 -9 3 -20 6 -25 6 -12 0 -11 23 3 57 21
52 21 73 -2 73 -11 0 -20 -4 -20 -8 0 -8 -43 -32 -58 -32 -12 0 -34 59 -27 71
4 6 23 18 42 26 19 8 33 17 30 20 -4 3 -22 -4 -42 -16 -38 -22 -55 -20 -55 5
0 8 -4 14 -9 14 -14 0 -7 38 11 60 10 11 24 20 33 20 8 0 29 9 47 20 45 27 61
25 76 -9z"/>
<path d="M2765 2673 c4 -21 9 -46 10 -56 1 -10 9 -27 18 -38 9 -10 17 -23 17
-27 0 -16 116 -71 138 -65 27 7 27 8 2 43 -11 16 -23 41 -26 58 -4 18 -17 35
-37 47 -18 10 -40 26 -50 37 -10 10 -27 18 -37 18 -11 0 -20 5 -20 10 0 6 -5
10 -11 10 -8 0 -9 -12 -4 -37z"/>
<path d="M1510 1912 c0 -37 35 -155 60 -201 9 -18 14 -20 26 -10 12 10 13 9 8
-6 -6 -14 -4 -16 7 -10 12 8 12 6 0 -8 -11 -14 -11 -23 -1 -47 7 -16 19 -35
27 -41 23 -19 43 -66 37 -83 -8 -22 -41 -20 -53 2 -7 13 -6 23 2 32 10 10 8
11 -10 6 -15 -5 -28 -1 -40 11 -32 33 -89 117 -118 177 -38 76 -45 55 -9 -26
23 -52 93 -168 114 -188 38 -36 61 -76 56 -96 -5 -20 -1 -25 31 -34 21 -6 60
-10 88 -8 44 3 52 7 64 32 10 22 15 25 22 15 5 -8 9 -11 10 -6 1 4 2 10 3 15
1 4 10 29 21 55 14 38 16 50 6 56 -9 6 -6 10 9 14 15 4 21 11 17 21 -6 15 18
31 41 27 20 -3 14 9 -10 19 -19 7 -16 9 20 9 49 1 57 18 10 24 -29 3 -28 4 9
5 23 1 45 7 48 12 4 6 -28 11 -87 12 l-93 2 94 5 94 6 -36 32 c-42 37 -88 48
-159 40 -64 -8 -70 -14 -35 -39 43 -31 34 -41 -33 -36 -55 4 -63 8 -110 54
-27 27 -57 65 -66 84 -9 19 -23 39 -30 43 -8 4 -14 19 -14 32 0 13 -4 27 -10
30 -6 4 -10 -9 -10 -33z"/>
<path d="M1110 1693 c-48 -76 -70 -138 -70 -198 0 -22 -7 -65 -16 -95 -31
-109 -33 -100 29 -100 l55 0 19 48 c68 161 77 192 61 208 -14 14 -17 11 -28
-35 -11 -48 -19 -59 -32 -45 -3 3 1 33 9 67 8 34 16 73 18 87 2 14 4 25 5 25
7 0 9 79 2 91 -7 12 -18 1 -52 -53z"/>
<path d="M1298 1510 c-13 -8 -14 -15 -5 -39 21 -56 -20 -87 -43 -31 -15 37
-21 37 -47 2 -58 -78 -101 -209 -84 -254 20 -53 45 -63 160 -63 169 0 366 63
661 210 110 55 128 68 148 104 l23 41 -78 -2 c-43 0 -63 -3 -45 -5 17 -2 32
-8 32 -14 0 -17 -119 -97 -176 -118 -35 -14 -78 -21 -122 -21 -67 0 -69 1
-204 69 -15 8 -30 22 -34 30 -3 9 -28 35 -55 59 -51 43 -93 54 -131 32z"/>
<path d="M2446 1470 c-2 -3 -18 -50 -36 -105 -67 -205 -156 -338 -265 -396
-45 -24 -57 -39 -32 -39 16 0 79 -63 76 -76 -1 -5 10 -34 24 -64 28 -58 36
-136 18 -183 -5 -13 -12 -51 -16 -83 -3 -33 -10 -77 -15 -98 -5 -22 -6 -44 -4
-48 3 -5 2 -14 -4 -21 -5 -7 -8 -37 -8 -67 1 -52 2 -55 29 -58 15 -2 27 -9 27
-16 0 -7 9 -22 20 -34 11 -12 20 -28 20 -36 0 -8 5 -18 10 -21 6 -4 10 -14 9
-23 -2 -10 3 -36 11 -59 l13 -43 552 0 552 0 18 118 c36 249 56 356 68 364 6
5 24 7 38 5 25 -3 27 0 37 56 8 44 22 74 54 115 49 64 78 135 85 205 4 41 10
51 44 75 27 18 49 47 70 90 31 64 66 105 80 96 5 -3 6 2 3 10 -4 10 8 22 35
38 23 13 41 26 41 29 0 3 -28 13 -61 23 l-62 17 21 22 c11 12 23 34 27 49 7
26 6 26 -31 18 -21 -5 -42 -8 -47 -7 -5 1 -14 -11 -20 -28 -5 -16 -14 -36 -20
-42 -14 -18 -54 -16 -65 3 -5 9 -14 14 -21 10 -17 -11 -13 -53 7 -68 10 -7 21
-20 24 -29 4 -9 21 -19 38 -22 45 -10 32 -31 -21 -35 -53 -4 -79 -28 -72 -65
3 -16 1 -27 -6 -27 -6 0 -11 -9 -11 -20 0 -11 -6 -20 -12 -20 -7 0 -24 -16
-38 -34 -46 -62 -110 -91 -110 -50 0 8 -9 14 -20 14 -11 0 -20 -5 -20 -11 0
-6 6 -9 13 -6 12 4 44 -30 35 -38 -8 -8 -54 -8 -67 -1 -8 5 -16 4 -20 -3 -5
-8 -13 -5 -26 9 -10 11 -24 20 -31 20 -7 0 -19 18 -25 40 -10 33 -9 47 5 84
18 46 75 106 101 106 22 0 18 18 -5 30 -33 18 -14 29 41 24 33 -3 48 -1 44 6
-3 5 -16 10 -28 10 l-21 0 22 16 c24 16 42 12 42 -12 0 -8 5 -14 11 -14 6 0 9
-7 5 -15 -8 -21 0 -19 25 6 18 18 19 24 9 50 -11 25 -10 32 4 48 9 9 16 22 16
28 0 9 -27 25 -62 37 -19 6 -25 26 -7 26 5 0 8 4 5 9 -3 5 1 11 9 15 8 3 15
17 15 31 0 14 4 25 8 25 4 0 6 -16 4 -35 -3 -26 0 -35 11 -35 16 0 27 20 27
51 0 10 7 19 15 19 8 0 15 7 15 15 0 12 -25 15 -162 14 -90 0 -165 1 -168 2
-3 1 -99 3 -215 6 -115 2 -217 3 -225 4 -8 0 -53 0 -100 0 -47 0 -145 1 -218
2 -74 1 -135 0 -136 -3z m647 -147 c-4 -10 -15 -31 -25 -48 -25 -42 -23 -87 6
-114 13 -12 33 -23 45 -24 23 -1 26 -15 13 -62 -12 -40 -5 -55 23 -55 12 0 28
-6 34 -14 11 -13 5 -46 -10 -56 -14 -10 3 -58 22 -63 18 -5 26 -36 13 -50 -12
-11 -34 5 -35 27 0 20 -1 20 -8 2 -5 -14 -10 -16 -15 -8 -4 7 -5 16 -1 21 6
12 -9 16 -102 31 -67 11 -71 13 -64 33 4 12 4 37 0 56 -8 36 -1 59 25 81 12 9
16 32 16 85 0 60 5 83 26 124 25 48 51 72 37 34z"/>
<path d="M1350 991 c-47 -16 -126 -47 -176 -69 -108 -48 -281 -105 -384 -128
-113 -25 -279 -23 -354 4 -33 12 -61 20 -63 18 -4 -3 112 -112 206 -195 42
-36 59 -57 53 -65 -6 -6 -17 -55 -27 -109 -10 -53 -21 -100 -26 -103 -13 -8
-11 13 12 132 11 58 18 109 15 112 -6 6 -9 -3 -24 -73 -10 -42 -25 -134 -27
-157 0 -3 -4 -10 -9 -15 -10 -10 1 97 16 149 6 20 7 45 3 55 -8 21 -40 -79
-50 -164 -6 -41 -11 -52 -28 -57 -21 -5 -127 20 -127 30 0 3 19 4 42 2 l42 -3
17 105 c10 58 17 106 15 107 -1 1 -16 3 -34 5 -18 1 -32 6 -32 10 0 12 -38 9
-46 -4 -5 -8 -10 -5 -15 9 -6 16 -20 23 -58 28 -30 4 -61 16 -77 30 -16 14
-35 21 -48 18 -16 -4 -18 -2 -7 5 12 8 12 13 2 25 -9 12 -9 16 1 20 8 3 6 6
-5 6 -14 1 -18 8 -16 29 6 78 -12 107 -56 93 -17 -5 -42 -12 -57 -15 l-28 -6
0 -194 c0 -138 3 -195 12 -198 18 -6 20 -48 3 -54 -13 -5 -15 -36 -15 -190 l0
-184 379 0 c259 0 382 3 386 11 4 6 13 8 20 5 19 -7 33 13 37 54 2 28 7 35 23
33 11 -1 23 4 27 10 5 8 8 6 8 -5 0 -10 -7 -18 -15 -18 -9 0 -12 -6 -9 -15 5
-12 9 -13 20 -4 12 10 13 8 8 -7 -7 -18 -6 -18 12 -1 15 14 16 19 6 26 -11 7
-10 10 3 15 12 4 15 13 11 29 -3 14 1 33 10 46 13 18 14 24 2 38 -11 14 -10
15 12 9 24 -7 25 -7 5 9 -18 15 -18 16 -2 13 14 -2 26 11 45 49 31 59 51 68
114 53 24 -5 66 -10 94 -10 58 0 84 -20 84 -63 0 -40 50 -157 67 -157 8 0 11
-5 8 -11 -4 -6 14 5 39 25 50 38 111 53 175 42 44 -7 44 -6 57 91 l6 52 -36
-6 c-50 -8 -81 15 -94 69 -13 52 -2 157 21 212 21 48 97 155 157 221 25 28 54
61 65 75 l20 24 -30 -18 -30 -19 34 37 c19 19 33 37 30 40 -15 13 -206 59
-264 62 -59 4 -83 0 -155 -25z"/>
<path d="M3666 168 c-5 -18 -26 -143 -26 -157 0 -8 53 -11 180 -11 l181 0 -3
62 -3 63 -50 6 c-31 4 -56 2 -64 -5 -11 -8 -13 -8 -7 2 4 6 3 12 -1 12 -5 0
-15 -6 -22 -12 -10 -11 -11 -10 -5 5 5 13 2 16 -9 11 -9 -3 -18 -11 -20 -17
-2 -7 -3 -4 -2 5 4 23 -1 26 -61 33 -27 4 -57 9 -67 11 -9 3 -19 -1 -21 -8z"/>
</g>
</svg>
